<svg xmlns="http://www.w3.org/2000/svg" xmlns:xlink="http://www.w3.org/1999/xlink" width="1200" zoomAndPan="magnify" viewBox="0 0 900 899.99999" height="1200" preserveAspectRatio="xMidYMid meet" version="1.0"><defs><clipPath id="2f0d49edfe"><path d="M 115.4375 90 L 784.4375 90 L 784.4375 759 L 115.4375 759 Z M 115.4375 90 " clip-rule="nonzero"/></clipPath><clipPath id="807faa187e"><path d="M 449.996094 90 C 265.222656 90 115.4375 239.785156 115.4375 424.558594 C 115.4375 609.332031 265.222656 759.117188 449.996094 759.117188 C 634.765625 759.117188 784.554688 609.332031 784.554688 424.558594 C 784.554688 239.785156 634.765625 90 449.996094 90 Z M 449.996094 90 " clip-rule="nonzero"/></clipPath><clipPath id="213625bc21"><path d="M 417.5625 170.820312 L 482.4375 170.820312 L 482.4375 678.425781 L 417.5625 678.425781 Z M 417.5625 170.820312 " clip-rule="nonzero"/></clipPath><clipPath id="84a58b078f"><path d="M 450 170.820312 C 467.914062 170.820312 482.4375 185.34375 482.4375 203.257812 L 482.4375 645.871094 C 482.4375 663.785156 467.914062 678.308594 450 678.308594 C 432.085938 678.308594 417.5625 663.785156 417.5625 645.871094 L 417.5625 203.257812 C 417.5625 185.34375 432.085938 170.820312 450 170.820312 Z M 450 170.820312 " clip-rule="nonzero"/></clipPath><clipPath id="45390093f3"><path d="M 0.5625 0.820312 L 65.4375 0.820312 L 65.4375 508.425781 L 0.5625 508.425781 Z M 0.5625 0.820312 " clip-rule="nonzero"/></clipPath><clipPath id="ce7f3b30e8"><path d="M 33 0.820312 C 50.914062 0.820312 65.4375 15.34375 65.4375 33.257812 L 65.4375 475.871094 C 65.4375 493.785156 50.914062 508.308594 33 508.308594 C 15.085938 508.308594 0.5625 493.785156 0.5625 475.871094 L 0.5625 33.257812 C 0.5625 15.34375 15.085938 0.820312 33 0.820312 Z M 33 0.820312 " clip-rule="nonzero"/></clipPath><clipPath id="9ad49a8967"><rect x="0" width="66" y="0" height="509"/></clipPath><clipPath id="e14dba5714"><path d="M 196.132812 392.121094 L 703.738281 392.121094 L 703.738281 457 L 196.132812 457 Z M 196.132812 392.121094 " clip-rule="nonzero"/></clipPath><clipPath id="3e0573f205"><path d="M 703.738281 424.558594 C 703.738281 442.476562 689.214844 457 671.300781 457 L 228.6875 457 C 210.773438 457 196.25 442.476562 196.25 424.558594 C 196.25 406.644531 210.773438 392.121094 228.6875 392.121094 L 671.300781 392.121094 C 689.214844 392.121094 703.738281 406.644531 703.738281 424.558594 Z M 703.738281 424.558594 " clip-rule="nonzero"/></clipPath><clipPath id="310f0b1a94"><path d="M 0.132812 0.121094 L 507.738281 0.121094 L 507.738281 65 L 0.132812 65 Z M 0.132812 0.121094 " clip-rule="nonzero"/></clipPath><clipPath id="cbaa20711a"><path d="M 507.738281 32.558594 C 507.738281 50.476562 493.214844 65 475.300781 65 L 32.6875 65 C 14.773438 65 0.25 50.476562 0.25 32.558594 C 0.25 14.644531 14.773438 0.121094 32.6875 0.121094 L 475.300781 0.121094 C 493.214844 0.121094 507.738281 14.644531 507.738281 32.558594 Z M 507.738281 32.558594 " clip-rule="nonzero"/></clipPath><clipPath id="d186f4aae5"><rect x="0" width="508" y="0" height="65"/></clipPath><clipPath id="ed01cd1df9"><path d="M 115.4375 770.617188 L 779.15625 770.617188 L 779.15625 810 L 115.4375 810 Z M 115.4375 770.617188 " clip-rule="nonzero"/></clipPath><clipPath id="68a2580797"><path d="M 0.4375 0.617188 L 664.15625 0.617188 L 664.15625 40 L 0.4375 40 Z M 0.4375 0.617188 " clip-rule="nonzero"/></clipPath><clipPath id="40688bfacb"><rect x="0" width="665" y="0" height="40"/></clipPath><clipPath id="8ad2203c82"><path d="M 417.5625 392.125 L 482.8125 392.125 L 482.8125 457 L 417.5625 457 Z M 417.5625 392.125 " clip-rule="nonzero"/></clipPath></defs><g clip-path="url(#2f0d49edfe)"><g clip-path="url(#807faa187e)"><path stroke-linecap="butt" transform="matrix(0.75, 0, 0, 0.75, 115.435979, 90.000015)" fill="none" stroke-linejoin="miter" d="M 446.080177 -0.0000203867 C 199.71558 -0.0000203867 0.00202832 199.713532 0.00202832 446.078128 C 0.00202832 692.442724 199.71558 892.156276 446.080177 892.156276 C 692.439565 892.156276 892.158325 692.442724 892.158325 446.078128 C 892.158325 199.713532 692.439565 -0.0000203867 446.080177 -0.0000203867 Z M 446.080177 -0.0000203867 " stroke="#0077b6" stroke-width="28" stroke-opacity="1" stroke-miterlimit="4"/></g></g><g clip-path="url(#213625bc21)"><g clip-path="url(#84a58b078f)"><g transform="matrix(1, 0, 0, 1, 417, 170)"><g clip-path="url(#9ad49a8967)"><g clip-path="url(#45390093f3)"><g clip-path="url(#ce7f3b30e8)"><path fill="#219653" d="M 0.5625 0.820312 L 65.4375 0.820312 L 65.4375 508.425781 L 0.5625 508.425781 Z M 0.5625 0.820312 " fill-opacity="1" fill-rule="nonzero"/></g></g></g></g></g></g><g clip-path="url(#e14dba5714)"><g clip-path="url(#3e0573f205)"><g transform="matrix(1, 0, 0, 1, 196, 392)"><g clip-path="url(#d186f4aae5)"><g clip-path="url(#310f0b1a94)"><g clip-path="url(#cbaa20711a)"><path fill="#219653" d="M 507.738281 0.121094 L 507.738281 65 L 0.132812 65 L 0.132812 0.121094 Z M 507.738281 0.121094 " fill-opacity="1" fill-rule="nonzero"/></g></g></g></g></g></g><g clip-path="url(#ed01cd1df9)"><g transform="matrix(1, 0, 0, 1, 115, 770)"><g clip-path="url(#40688bfacb)"><g clip-path="url(#68a2580797)"><path fill="#0077b6" d="M 0.4375 0.617188 L 664.082031 0.617188 L 664.082031 40 L 0.4375 40 Z M 0.4375 0.617188 " fill-opacity="1" fill-rule="nonzero"/></g></g></g></g><g clip-path="url(#8ad2203c82)"><path fill="#e9c46a" d="M 482.4375 424.5625 C 482.4375 425.625 482.386719 426.6875 482.28125 427.742188 C 482.175781 428.800781 482.019531 429.851562 481.8125 430.890625 C 481.605469 431.933594 481.347656 432.964844 481.039062 433.980469 C 480.730469 434.996094 480.375 435.996094 479.96875 436.976562 C 479.5625 437.957031 479.109375 438.917969 478.605469 439.855469 C 478.105469 440.792969 477.558594 441.703125 476.96875 442.585938 C 476.378906 443.46875 475.746094 444.320312 475.074219 445.140625 C 474.398438 445.960938 473.6875 446.75 472.9375 447.5 C 472.183594 448.25 471.398438 448.964844 470.578125 449.636719 C 469.757812 450.3125 468.902344 450.945312 468.019531 451.535156 C 467.136719 452.125 466.226562 452.671875 465.289062 453.171875 C 464.351562 453.671875 463.394531 454.125 462.414062 454.53125 C 461.429688 454.9375 460.433594 455.296875 459.414062 455.605469 C 458.398438 455.914062 457.371094 456.171875 456.328125 456.378906 C 455.285156 456.585938 454.234375 456.742188 453.179688 456.84375 C 452.121094 456.949219 451.0625 457 450 457 C 448.9375 457 447.878906 456.949219 446.820312 456.84375 C 445.761719 456.742188 444.714844 456.585938 443.671875 456.378906 C 442.628906 456.171875 441.601562 455.914062 440.582031 455.605469 C 439.566406 455.296875 438.566406 454.9375 437.585938 454.53125 C 436.605469 454.125 435.644531 453.671875 434.707031 453.171875 C 433.773438 452.671875 432.863281 452.125 431.976562 451.535156 C 431.09375 450.945312 430.242188 450.3125 429.421875 449.636719 C 428.601562 448.964844 427.8125 448.25 427.0625 447.5 C 426.3125 446.75 425.597656 445.960938 424.925781 445.140625 C 424.25 444.320312 423.617188 443.46875 423.027344 442.585938 C 422.4375 441.703125 421.894531 440.792969 421.390625 439.855469 C 420.890625 438.917969 420.4375 437.957031 420.03125 436.976562 C 419.625 435.996094 419.265625 434.996094 418.957031 433.980469 C 418.648438 432.964844 418.390625 431.933594 418.183594 430.890625 C 417.976562 429.851562 417.820312 428.800781 417.71875 427.742188 C 417.613281 426.6875 417.5625 425.625 417.5625 424.5625 C 417.5625 423.5 417.613281 422.441406 417.71875 421.382812 C 417.820312 420.328125 417.976562 419.277344 418.183594 418.234375 C 418.390625 417.191406 418.648438 416.164062 418.957031 415.148438 C 419.265625 414.128906 419.625 413.132812 420.03125 412.148438 C 420.4375 411.167969 420.890625 410.210938 421.390625 409.273438 C 421.894531 408.335938 422.4375 407.425781 423.027344 406.542969 C 423.617188 405.660156 424.25 404.804688 424.925781 403.984375 C 425.597656 403.164062 426.3125 402.378906 427.0625 401.625 C 427.8125 400.875 428.601562 400.164062 429.421875 399.488281 C 430.242188 398.816406 431.09375 398.183594 431.976562 397.59375 C 432.863281 397.003906 433.773438 396.457031 434.707031 395.957031 C 435.644531 395.457031 436.605469 395 437.585938 394.59375 C 438.566406 394.1875 439.566406 393.832031 440.582031 393.523438 C 441.601562 393.214844 442.628906 392.957031 443.671875 392.75 C 444.714844 392.542969 445.761719 392.386719 446.820312 392.28125 C 447.878906 392.179688 448.9375 392.125 450 392.125 C 451.0625 392.125 452.121094 392.179688 453.179688 392.28125 C 454.234375 392.386719 455.285156 392.542969 456.328125 392.75 C 457.371094 392.957031 458.398438 393.214844 459.414062 393.523438 C 460.433594 393.832031 461.429688 394.1875 462.414062 394.59375 C 463.394531 395 464.351562 395.457031 465.289062 395.957031 C 466.226562 396.457031 467.136719 397.003906 468.019531 397.59375 C 468.902344 398.183594 469.757812 398.816406 470.578125 399.488281 C 471.398438 400.164062 472.183594 400.875 472.9375 401.625 C 473.6875 402.378906 474.398438 403.164062 475.074219 403.984375 C 475.746094 404.804688 476.378906 405.660156 476.96875 406.542969 C 477.558594 407.425781 478.105469 408.335938 478.605469 409.273438 C 479.109375 410.210938 479.5625 411.167969 479.96875 412.148438 C 480.375 413.132812 480.730469 414.128906 481.039062 415.148438 C 481.347656 416.164062 481.605469 417.191406 481.8125 418.234375 C 482.019531 419.277344 482.175781 420.328125 482.28125 421.382812 C 482.386719 422.441406 482.4375 423.5 482.4375 424.5625 Z M 482.4375 424.5625 " fill-opacity="1" fill-rule="nonzero"/></g></svg>